<?xml version="1.0" encoding="utf-8"?>
<!-- Generator: Adobe Illustrator 16.0.0, SVG Export Plug-In . SVG Version: 6.00 Build 0)  -->
<!DOCTYPE svg PUBLIC "-//W3C//DTD SVG 1.1//EN" "http://www.w3.org/Graphics/SVG/1.1/DTD/svg11.dtd">
<svg version="1.1" id="Calque_1" xmlns="http://www.w3.org/2000/svg" xmlns:xlink="http://www.w3.org/1999/xlink" x="0px" y="0px"
	 width="960px" height="560px" viewBox="0 0 960 560" enable-background="new 0 0 960 560" xml:space="preserve">
<polygon fill="#FFFFFF" points="715,295 581.224,378.055 573.803,535.342 453.473,433.778 301.591,475.324 361,329.5 
	274.553,197.89 431.599,209.329 530.054,86.443 567.704,239.338 "/>
<image overflow="visible" width="1240" height="827" xlink:href="8F79F76D.jpg"  transform="matrix(1 0 0 1 -140 -134)">
</image>
<polygon fill="#FFFFFF" stroke="#000000" stroke-miterlimit="10" points="39,-143 18.258,-152.017 -0.929,-140.042 1.237,-162.556 
	-16.081,-177.103 6,-182 14.484,-202.966 25.964,-183.479 48.526,-181.889 33.541,-164.948 "/>
<polygon fill="#FFFFFF" stroke="#000000" stroke-miterlimit="10" points="103,240 81.369,230.681 61.429,243.218 63.607,219.766 
	45.522,204.676 68.5,199.5 77.263,177.638 89.286,197.891 112.786,199.469 97.239,217.162 "/>
<polygon fill="#FFFFFF" stroke="#000000" stroke-miterlimit="10" points="504,95 485.323,88.667 469.517,100.461 469.769,80.741 
	453.667,69.354 472.5,63.5 478.354,44.667 489.741,60.769 509.462,60.517 497.666,76.323 "/>
<polygon fill="#FFFFFF" stroke="#000000" stroke-miterlimit="10" points="337,101 313.892,90.188 291.885,103.096 295.026,77.777 
	275.95,60.836 301,56 311.217,32.623 323.558,54.952 348.948,57.445 331.525,76.082 "/>
<polygon fill="#FFFFFF" stroke="#000000" stroke-miterlimit="10" points="732,129 705.311,121.437 683.95,139.135 682.896,111.415 
	659.463,96.569 685.5,87 692.379,60.126 709.525,81.933 737.209,80.17 721.769,103.216 "/>
<polygon fill="#FFFFFF" stroke="#000000" stroke-miterlimit="10" points="931,140 897.799,128.245 869.293,148.932 870.213,113.723 
	841.73,93.005 875.5,83 886.402,49.509 906.354,78.534 941.574,78.554 920.135,106.497 "/>
<text transform="matrix(1 0 0 1 415 -169)" font-family="'MyriadPro-Regular'" font-size="12">BONNES FËTES</text>
</svg>
